<mxfile host="app.diagrams.net" modified="2024-05-08T03:48:08.630Z" agent="Mozilla/5.0 (X11; Ubuntu; Linux x86_64; rv:124.0) Gecko/20100101 Firefox/124.0" etag="Umck5KGbbmWxDNX2vfpQ" version="24.2.1" type="device">
  <diagram id="C5RBs43oDa-KdzZeNtuy" name="Page-1">
    <mxGraphModel dx="2326" dy="1182" grid="1" gridSize="10" guides="1" tooltips="1" connect="1" arrows="1" fold="1" page="1" pageScale="1" pageWidth="827" pageHeight="1169" math="0" shadow="0">
      <root>
        <mxCell id="WIyWlLk6GJQsqaUBKTNV-0" />
        <mxCell id="WIyWlLk6GJQsqaUBKTNV-1" parent="WIyWlLk6GJQsqaUBKTNV-0" />
        <mxCell id="UHhDDNQdahmZIz7eUhEE-2" style="edgeStyle=orthogonalEdgeStyle;rounded=0;orthogonalLoop=1;jettySize=auto;html=1;exitX=0.5;exitY=1;exitDx=0;exitDy=0;exitPerimeter=0;strokeWidth=2;fontSize=12;fontStyle=0;align=center;fontColor=#000000;" edge="1" parent="WIyWlLk6GJQsqaUBKTNV-1" source="UHhDDNQdahmZIz7eUhEE-0" target="UHhDDNQdahmZIz7eUhEE-1">
          <mxGeometry relative="1" as="geometry" />
        </mxCell>
        <mxCell id="UHhDDNQdahmZIz7eUhEE-0" value="Начало" style="strokeWidth=2;html=1;shape=mxgraph.flowchart.terminator;whiteSpace=wrap;fontSize=12;fontStyle=0;align=center;fontColor=#000000;" vertex="1" parent="WIyWlLk6GJQsqaUBKTNV-1">
          <mxGeometry x="340" y="130" width="100" height="60" as="geometry" />
        </mxCell>
        <mxCell id="UHhDDNQdahmZIz7eUhEE-15" style="edgeStyle=orthogonalEdgeStyle;rounded=0;orthogonalLoop=1;jettySize=auto;html=1;exitX=0.5;exitY=1;exitDx=0;exitDy=0;entryX=0.5;entryY=0;entryDx=0;entryDy=0;strokeWidth=2;fontSize=12;fontStyle=0;align=center;fontColor=#000000;" edge="1" parent="WIyWlLk6GJQsqaUBKTNV-1" source="UHhDDNQdahmZIz7eUhEE-1" target="UHhDDNQdahmZIz7eUhEE-3">
          <mxGeometry relative="1" as="geometry" />
        </mxCell>
        <mxCell id="UHhDDNQdahmZIz7eUhEE-1" value="Считывание параметров" style="rounded=0;whiteSpace=wrap;html=1;strokeWidth=2;fontSize=12;fontStyle=0;align=center;fontColor=#000000;" vertex="1" parent="WIyWlLk6GJQsqaUBKTNV-1">
          <mxGeometry x="330" y="210" width="120" height="60" as="geometry" />
        </mxCell>
        <mxCell id="UHhDDNQdahmZIz7eUhEE-16" style="edgeStyle=orthogonalEdgeStyle;rounded=0;orthogonalLoop=1;jettySize=auto;html=1;exitX=0.5;exitY=1;exitDx=0;exitDy=0;entryX=0.5;entryY=0;entryDx=0;entryDy=0;strokeWidth=2;fontSize=12;fontStyle=0;align=center;fontColor=#000000;" edge="1" parent="WIyWlLk6GJQsqaUBKTNV-1" source="UHhDDNQdahmZIz7eUhEE-3" target="UHhDDNQdahmZIz7eUhEE-6">
          <mxGeometry relative="1" as="geometry" />
        </mxCell>
        <mxCell id="UHhDDNQdahmZIz7eUhEE-18" style="edgeStyle=orthogonalEdgeStyle;rounded=0;orthogonalLoop=1;jettySize=auto;html=1;exitX=1;exitY=0.5;exitDx=0;exitDy=0;strokeWidth=2;fontSize=12;fontStyle=0;align=center;fontColor=#000000;" edge="1" parent="WIyWlLk6GJQsqaUBKTNV-1" source="UHhDDNQdahmZIz7eUhEE-3" target="UHhDDNQdahmZIz7eUhEE-4">
          <mxGeometry relative="1" as="geometry" />
        </mxCell>
        <mxCell id="UHhDDNQdahmZIz7eUhEE-3" value="&lt;div style=&quot;font-size: 12px;&quot;&gt;Кол-во пар-ов&lt;/div&gt;&lt;div style=&quot;font-size: 12px;&quot;&gt;равно 0&lt;br style=&quot;font-size: 12px;&quot;&gt;&lt;/div&gt;" style="rhombus;whiteSpace=wrap;html=1;strokeWidth=2;fontSize=12;fontStyle=0;align=center;fontColor=#000000;" vertex="1" parent="WIyWlLk6GJQsqaUBKTNV-1">
          <mxGeometry x="330" y="290" width="120" height="80" as="geometry" />
        </mxCell>
        <mxCell id="UHhDDNQdahmZIz7eUhEE-4" value="&lt;div style=&quot;font-size: 12px;&quot;&gt;Сообщение об&lt;/div&gt;&lt;div style=&quot;font-size: 12px;&quot;&gt;ошибке&lt;br style=&quot;font-size: 12px;&quot;&gt;&lt;/div&gt;" style="shape=parallelogram;perimeter=parallelogramPerimeter;whiteSpace=wrap;html=1;fixedSize=1;strokeWidth=2;fontSize=12;fontStyle=0;align=center;fontColor=#000000;" vertex="1" parent="WIyWlLk6GJQsqaUBKTNV-1">
          <mxGeometry x="480" y="300" width="120" height="60" as="geometry" />
        </mxCell>
        <mxCell id="UHhDDNQdahmZIz7eUhEE-5" value="Конец" style="strokeWidth=2;html=1;shape=mxgraph.flowchart.terminator;whiteSpace=wrap;fontSize=12;fontStyle=0;align=center;fontColor=#000000;" vertex="1" parent="WIyWlLk6GJQsqaUBKTNV-1">
          <mxGeometry x="630" y="300" width="100" height="60" as="geometry" />
        </mxCell>
        <mxCell id="UHhDDNQdahmZIz7eUhEE-17" style="edgeStyle=orthogonalEdgeStyle;rounded=0;orthogonalLoop=1;jettySize=auto;html=1;exitX=0.5;exitY=1;exitDx=0;exitDy=0;strokeWidth=2;fontSize=12;fontStyle=0;align=center;fontColor=#000000;" edge="1" parent="WIyWlLk6GJQsqaUBKTNV-1" source="UHhDDNQdahmZIz7eUhEE-6" target="UHhDDNQdahmZIz7eUhEE-9">
          <mxGeometry relative="1" as="geometry" />
        </mxCell>
        <mxCell id="UHhDDNQdahmZIz7eUhEE-19" style="edgeStyle=orthogonalEdgeStyle;rounded=0;orthogonalLoop=1;jettySize=auto;html=1;exitX=1;exitY=0.5;exitDx=0;exitDy=0;entryX=0;entryY=0.5;entryDx=0;entryDy=0;strokeWidth=2;fontSize=12;fontStyle=0;align=center;fontColor=#000000;" edge="1" parent="WIyWlLk6GJQsqaUBKTNV-1" source="UHhDDNQdahmZIz7eUhEE-6" target="UHhDDNQdahmZIz7eUhEE-7">
          <mxGeometry relative="1" as="geometry" />
        </mxCell>
        <mxCell id="UHhDDNQdahmZIz7eUhEE-6" value="&lt;div style=&quot;background-color: rgb(255, 255, 255); font-family: &amp;quot;Droid Sans Mono&amp;quot;, &amp;quot;monospace&amp;quot;, monospace; font-size: 12px; line-height: 19px; white-space: pre;&quot;&gt;&lt;div style=&quot;font-size: 12px;&quot;&gt;&lt;span style=&quot;font-size: 12px;&quot;&gt;Проверка&lt;/span&gt;&lt;/div&gt;&lt;div style=&quot;font-size: 12px;&quot;&gt;&lt;span style=&quot;font-size: 12px;&quot;&gt;первого&lt;/span&gt;&lt;/div&gt;&lt;div style=&quot;font-size: 12px;&quot;&gt;&lt;span style=&quot;font-size: 12px;&quot;&gt;параметра&lt;/span&gt;&lt;/div&gt;&lt;/div&gt;" style="rhombus;whiteSpace=wrap;html=1;strokeWidth=2;fontSize=12;fontStyle=0;align=center;fontColor=#000000;" vertex="1" parent="WIyWlLk6GJQsqaUBKTNV-1">
          <mxGeometry x="330" y="390" width="120" height="80" as="geometry" />
        </mxCell>
        <mxCell id="UHhDDNQdahmZIz7eUhEE-7" value="&lt;div style=&quot;font-size: 12px;&quot;&gt;Сообщение об&lt;/div&gt;&lt;div style=&quot;font-size: 12px;&quot;&gt;ошибке&lt;br style=&quot;font-size: 12px;&quot;&gt;&lt;/div&gt;" style="shape=parallelogram;perimeter=parallelogramPerimeter;whiteSpace=wrap;html=1;fixedSize=1;strokeWidth=2;fontSize=12;fontStyle=0;align=center;fontColor=#000000;" vertex="1" parent="WIyWlLk6GJQsqaUBKTNV-1">
          <mxGeometry x="470" y="400" width="120" height="60" as="geometry" />
        </mxCell>
        <mxCell id="UHhDDNQdahmZIz7eUhEE-8" value="Конец" style="strokeWidth=2;html=1;shape=mxgraph.flowchart.terminator;whiteSpace=wrap;fontSize=12;fontStyle=0;align=center;fontColor=#000000;" vertex="1" parent="WIyWlLk6GJQsqaUBKTNV-1">
          <mxGeometry x="630" y="400" width="100" height="60" as="geometry" />
        </mxCell>
        <mxCell id="UHhDDNQdahmZIz7eUhEE-12" style="edgeStyle=orthogonalEdgeStyle;rounded=0;orthogonalLoop=1;jettySize=auto;html=1;exitX=1;exitY=0.5;exitDx=0;exitDy=0;entryX=0.5;entryY=0;entryDx=0;entryDy=0;strokeWidth=2;fontSize=12;fontStyle=0;align=center;fontColor=#000000;" edge="1" parent="WIyWlLk6GJQsqaUBKTNV-1" source="UHhDDNQdahmZIz7eUhEE-9" target="UHhDDNQdahmZIz7eUhEE-11">
          <mxGeometry relative="1" as="geometry" />
        </mxCell>
        <mxCell id="UHhDDNQdahmZIz7eUhEE-24" style="edgeStyle=orthogonalEdgeStyle;rounded=0;orthogonalLoop=1;jettySize=auto;html=1;exitX=0;exitY=0.5;exitDx=0;exitDy=0;entryX=0.5;entryY=0;entryDx=0;entryDy=0;strokeWidth=2;fontSize=12;fontStyle=0;align=center;fontColor=#000000;" edge="1" parent="WIyWlLk6GJQsqaUBKTNV-1" source="UHhDDNQdahmZIz7eUhEE-9" target="UHhDDNQdahmZIz7eUhEE-10">
          <mxGeometry relative="1" as="geometry" />
        </mxCell>
        <mxCell id="UHhDDNQdahmZIz7eUhEE-9" value="&lt;div style=&quot;background-color: rgb(255, 255, 255); font-family: &amp;quot;Droid Sans Mono&amp;quot;, &amp;quot;monospace&amp;quot;, monospace; font-size: 12px; line-height: 19px; white-space: pre;&quot;&gt;&lt;div style=&quot;font-size: 12px;&quot;&gt;&lt;span style=&quot;font-size: 12px;&quot;&gt;Проверка&lt;/span&gt;&lt;/div&gt;&lt;div style=&quot;font-size: 12px;&quot;&gt;второго&lt;/div&gt;&lt;div style=&quot;font-size: 12px;&quot;&gt;&lt;span style=&quot;font-size: 12px;&quot;&gt;параметра&lt;/span&gt;&lt;/div&gt;&lt;/div&gt;" style="rhombus;whiteSpace=wrap;html=1;strokeWidth=2;fontSize=12;fontStyle=0;align=center;fontColor=#000000;" vertex="1" parent="WIyWlLk6GJQsqaUBKTNV-1">
          <mxGeometry x="330" y="490" width="120" height="80" as="geometry" />
        </mxCell>
        <mxCell id="UHhDDNQdahmZIz7eUhEE-33" style="edgeStyle=orthogonalEdgeStyle;rounded=0;orthogonalLoop=1;jettySize=auto;html=1;exitX=0;exitY=0.5;exitDx=0;exitDy=0;entryX=0.5;entryY=0;entryDx=0;entryDy=0;strokeWidth=2;fontSize=12;fontStyle=0;align=center;fontColor=#000000;" edge="1" parent="WIyWlLk6GJQsqaUBKTNV-1" source="UHhDDNQdahmZIz7eUhEE-10" target="UHhDDNQdahmZIz7eUhEE-25">
          <mxGeometry relative="1" as="geometry" />
        </mxCell>
        <mxCell id="UHhDDNQdahmZIz7eUhEE-38" style="edgeStyle=orthogonalEdgeStyle;rounded=0;orthogonalLoop=1;jettySize=auto;html=1;exitX=0.5;exitY=1;exitDx=0;exitDy=0;entryX=0.5;entryY=0;entryDx=0;entryDy=0;strokeWidth=2;fontSize=12;fontStyle=0;align=center;fontColor=#000000;" edge="1" parent="WIyWlLk6GJQsqaUBKTNV-1" source="UHhDDNQdahmZIz7eUhEE-10" target="UHhDDNQdahmZIz7eUhEE-36">
          <mxGeometry relative="1" as="geometry">
            <Array as="points">
              <mxPoint x="310" y="910" />
              <mxPoint x="400" y="910" />
            </Array>
          </mxGeometry>
        </mxCell>
        <mxCell id="UHhDDNQdahmZIz7eUhEE-10" value="&lt;div style=&quot;background-color: rgb(255, 255, 255); font-family: &amp;quot;Droid Sans Mono&amp;quot;, &amp;quot;monospace&amp;quot;, monospace; font-size: 12px; line-height: 19px; white-space: pre;&quot;&gt;&lt;div style=&quot;font-size: 12px;&quot;&gt;&lt;span style=&quot;font-size: 12px;&quot;&gt;Проверка&lt;/span&gt;&lt;/div&gt;с отступом&lt;/div&gt;&lt;div style=&quot;background-color: rgb(255, 255, 255); font-family: &amp;quot;Droid Sans Mono&amp;quot;, &amp;quot;monospace&amp;quot;, monospace; font-size: 12px; line-height: 19px; white-space: pre;&quot;&gt;10&lt;br style=&quot;font-size: 12px;&quot;&gt;&lt;/div&gt;" style="rhombus;whiteSpace=wrap;html=1;strokeWidth=2;fontSize=12;fontStyle=0;align=center;fontColor=#000000;" vertex="1" parent="WIyWlLk6GJQsqaUBKTNV-1">
          <mxGeometry x="250" y="690" width="120" height="80" as="geometry" />
        </mxCell>
        <mxCell id="UHhDDNQdahmZIz7eUhEE-23" style="edgeStyle=orthogonalEdgeStyle;rounded=0;orthogonalLoop=1;jettySize=auto;html=1;exitX=0.5;exitY=1;exitDx=0;exitDy=0;entryX=0.5;entryY=0;entryDx=0;entryDy=0;strokeWidth=2;fontSize=12;fontStyle=0;align=center;fontColor=#000000;" edge="1" parent="WIyWlLk6GJQsqaUBKTNV-1" source="UHhDDNQdahmZIz7eUhEE-11" target="UHhDDNQdahmZIz7eUhEE-22">
          <mxGeometry relative="1" as="geometry" />
        </mxCell>
        <mxCell id="UHhDDNQdahmZIz7eUhEE-11" value="&lt;div style=&quot;background-color: rgb(255, 255, 255); font-family: &amp;quot;Droid Sans Mono&amp;quot;, &amp;quot;monospace&amp;quot;, monospace; font-size: 12px; line-height: 19px; white-space: pre;&quot;&gt;&lt;div style=&quot;font-size: 12px;&quot;&gt;&lt;span style=&quot;font-size: 12px;&quot;&gt;falg[&lt;/span&gt;&lt;span style=&quot;font-size: 12px;&quot;&gt;1&lt;/span&gt;&lt;span style=&quot;font-size: 12px;&quot;&gt;],&lt;/span&gt;&lt;span style=&quot;font-size: 12px;&quot;&gt;1&lt;/span&gt;&lt;/div&gt;&lt;/div&gt;" style="rounded=0;whiteSpace=wrap;html=1;strokeWidth=2;fontSize=12;fontStyle=0;align=center;fontColor=#000000;" vertex="1" parent="WIyWlLk6GJQsqaUBKTNV-1">
          <mxGeometry x="414" y="590" width="120" height="60" as="geometry" />
        </mxCell>
        <mxCell id="UHhDDNQdahmZIz7eUhEE-20" style="edgeStyle=orthogonalEdgeStyle;rounded=0;orthogonalLoop=1;jettySize=auto;html=1;exitX=1;exitY=0.5;exitDx=0;exitDy=0;entryX=0;entryY=0.5;entryDx=0;entryDy=0;entryPerimeter=0;strokeWidth=2;fontSize=12;fontStyle=0;align=center;fontColor=#000000;" edge="1" parent="WIyWlLk6GJQsqaUBKTNV-1" source="UHhDDNQdahmZIz7eUhEE-4" target="UHhDDNQdahmZIz7eUhEE-5">
          <mxGeometry relative="1" as="geometry" />
        </mxCell>
        <mxCell id="UHhDDNQdahmZIz7eUhEE-21" style="edgeStyle=orthogonalEdgeStyle;rounded=0;orthogonalLoop=1;jettySize=auto;html=1;exitX=1;exitY=0.5;exitDx=0;exitDy=0;entryX=0;entryY=0.5;entryDx=0;entryDy=0;entryPerimeter=0;strokeWidth=2;fontSize=12;fontStyle=0;align=center;fontColor=#000000;" edge="1" parent="WIyWlLk6GJQsqaUBKTNV-1" source="UHhDDNQdahmZIz7eUhEE-7" target="UHhDDNQdahmZIz7eUhEE-8">
          <mxGeometry relative="1" as="geometry" />
        </mxCell>
        <mxCell id="UHhDDNQdahmZIz7eUhEE-32" style="edgeStyle=orthogonalEdgeStyle;rounded=0;orthogonalLoop=1;jettySize=auto;html=1;exitX=0.5;exitY=1;exitDx=0;exitDy=0;entryX=0.5;entryY=0;entryDx=0;entryDy=0;strokeWidth=2;fontSize=12;fontStyle=0;align=center;fontColor=#000000;" edge="1" parent="WIyWlLk6GJQsqaUBKTNV-1" source="UHhDDNQdahmZIz7eUhEE-22" target="UHhDDNQdahmZIz7eUhEE-31">
          <mxGeometry relative="1" as="geometry" />
        </mxCell>
        <mxCell id="UHhDDNQdahmZIz7eUhEE-35" style="edgeStyle=orthogonalEdgeStyle;rounded=0;orthogonalLoop=1;jettySize=auto;html=1;exitX=0;exitY=0.5;exitDx=0;exitDy=0;entryX=1;entryY=0.5;entryDx=0;entryDy=0;strokeWidth=2;fontSize=12;fontStyle=0;align=center;fontColor=#000000;" edge="1" parent="WIyWlLk6GJQsqaUBKTNV-1" source="UHhDDNQdahmZIz7eUhEE-22" target="UHhDDNQdahmZIz7eUhEE-25">
          <mxGeometry relative="1" as="geometry">
            <Array as="points">
              <mxPoint x="390" y="730" />
              <mxPoint x="390" y="830" />
            </Array>
          </mxGeometry>
        </mxCell>
        <mxCell id="UHhDDNQdahmZIz7eUhEE-22" value="&lt;div style=&quot;background-color: rgb(255, 255, 255); font-family: &amp;quot;Droid Sans Mono&amp;quot;, &amp;quot;monospace&amp;quot;, monospace; font-size: 12px; line-height: 19px; white-space: pre;&quot;&gt;&lt;div style=&quot;font-size: 12px;&quot;&gt;&lt;span style=&quot;font-size: 12px;&quot;&gt;Проверка&lt;/span&gt;&lt;/div&gt;с отступом&lt;/div&gt;&lt;div style=&quot;background-color: rgb(255, 255, 255); font-family: &amp;quot;Droid Sans Mono&amp;quot;, &amp;quot;monospace&amp;quot;, monospace; font-size: 12px; line-height: 19px; white-space: pre;&quot;&gt;12&lt;br style=&quot;font-size: 12px;&quot;&gt;&lt;/div&gt;" style="rhombus;whiteSpace=wrap;html=1;strokeWidth=2;fontSize=12;fontStyle=0;align=center;fontColor=#000000;" vertex="1" parent="WIyWlLk6GJQsqaUBKTNV-1">
          <mxGeometry x="414" y="690" width="120" height="80" as="geometry" />
        </mxCell>
        <mxCell id="UHhDDNQdahmZIz7eUhEE-25" value="&lt;div style=&quot;font-size: 12px;&quot;&gt;Сообщение об&lt;/div&gt;&lt;div style=&quot;font-size: 12px;&quot;&gt;ошибке&lt;br style=&quot;font-size: 12px;&quot;&gt;&lt;/div&gt;" style="shape=parallelogram;perimeter=parallelogramPerimeter;whiteSpace=wrap;html=1;fixedSize=1;strokeWidth=2;fontSize=12;fontStyle=0;align=center;fontColor=#000000;" vertex="1" parent="WIyWlLk6GJQsqaUBKTNV-1">
          <mxGeometry x="170" y="800" width="120" height="60" as="geometry" />
        </mxCell>
        <mxCell id="UHhDDNQdahmZIz7eUhEE-26" value="Конец" style="strokeWidth=2;html=1;shape=mxgraph.flowchart.terminator;whiteSpace=wrap;fontSize=12;fontStyle=0;align=center;fontColor=#000000;" vertex="1" parent="WIyWlLk6GJQsqaUBKTNV-1">
          <mxGeometry x="180" y="900" width="100" height="60" as="geometry" />
        </mxCell>
        <mxCell id="UHhDDNQdahmZIz7eUhEE-37" style="edgeStyle=orthogonalEdgeStyle;rounded=0;orthogonalLoop=1;jettySize=auto;html=1;exitX=0.5;exitY=1;exitDx=0;exitDy=0;entryX=0.5;entryY=0;entryDx=0;entryDy=0;strokeWidth=2;fontSize=12;fontStyle=0;align=center;fontColor=#000000;" edge="1" parent="WIyWlLk6GJQsqaUBKTNV-1" source="UHhDDNQdahmZIz7eUhEE-31" target="UHhDDNQdahmZIz7eUhEE-36">
          <mxGeometry relative="1" as="geometry" />
        </mxCell>
        <mxCell id="UHhDDNQdahmZIz7eUhEE-31" value="Вывод справки" style="shape=parallelogram;perimeter=parallelogramPerimeter;whiteSpace=wrap;html=1;fixedSize=1;strokeWidth=2;fontSize=12;fontStyle=0;align=center;fontColor=#000000;" vertex="1" parent="WIyWlLk6GJQsqaUBKTNV-1">
          <mxGeometry x="414" y="830" width="120" height="60" as="geometry" />
        </mxCell>
        <mxCell id="UHhDDNQdahmZIz7eUhEE-34" style="edgeStyle=orthogonalEdgeStyle;rounded=0;orthogonalLoop=1;jettySize=auto;html=1;exitX=0.5;exitY=1;exitDx=0;exitDy=0;entryX=0.5;entryY=0;entryDx=0;entryDy=0;entryPerimeter=0;strokeWidth=2;fontSize=12;fontStyle=0;align=center;fontColor=#000000;" edge="1" parent="WIyWlLk6GJQsqaUBKTNV-1" source="UHhDDNQdahmZIz7eUhEE-25" target="UHhDDNQdahmZIz7eUhEE-26">
          <mxGeometry relative="1" as="geometry" />
        </mxCell>
        <mxCell id="UHhDDNQdahmZIz7eUhEE-36" value="&lt;div style=&quot;font-size: 12px;&quot;&gt;Вывод&lt;/div&gt;&lt;div style=&quot;font-size: 12px;&quot;&gt;параметров&lt;/div&gt;" style="shape=parallelogram;perimeter=parallelogramPerimeter;whiteSpace=wrap;html=1;fixedSize=1;strokeWidth=2;fontSize=12;fontStyle=0;align=center;fontColor=#000000;" vertex="1" parent="WIyWlLk6GJQsqaUBKTNV-1">
          <mxGeometry x="340" y="930" width="120" height="60" as="geometry" />
        </mxCell>
        <mxCell id="UHhDDNQdahmZIz7eUhEE-39" value="Конец" style="strokeWidth=2;html=1;shape=mxgraph.flowchart.terminator;whiteSpace=wrap;fontSize=12;fontStyle=0;align=center;fontColor=#000000;" vertex="1" parent="WIyWlLk6GJQsqaUBKTNV-1">
          <mxGeometry x="350" y="1020" width="100" height="60" as="geometry" />
        </mxCell>
        <mxCell id="UHhDDNQdahmZIz7eUhEE-40" style="edgeStyle=orthogonalEdgeStyle;rounded=0;orthogonalLoop=1;jettySize=auto;html=1;exitX=0.5;exitY=1;exitDx=0;exitDy=0;entryX=0.5;entryY=0;entryDx=0;entryDy=0;entryPerimeter=0;strokeWidth=2;fontSize=12;fontStyle=0;align=center;fontColor=#000000;" edge="1" parent="WIyWlLk6GJQsqaUBKTNV-1" source="UHhDDNQdahmZIz7eUhEE-36" target="UHhDDNQdahmZIz7eUhEE-39">
          <mxGeometry relative="1" as="geometry" />
        </mxCell>
      </root>
    </mxGraphModel>
  </diagram>
</mxfile>
